PathFileType	4	(X/Y/Z)	D:\TRACE\spot_10-12-23\spot_body_motion_3_3-v60.trc
DataRate	CameraRate	NumFrames	NumMarkers	Units	OrigDataRate	OrigDataStartFrame	OrigNumFrames
100.00	100.00	      21	9	mm	100.00	5251	      7000
Frame#	Time	front left toe			Front right toe			aft left toe			aft right toe			Arm			FL body			FR body			AL Body			AR Body			
		X1	Y1	Z1	X2	Y2	Z2	X3	Y3	Z3	X4	Y4	Z4	X5	Y5	Z5	X6	Y6	Z6	X7	Y7	Z7	X8	Y8	Z8	X9	Y9	Z9	

5251	52.500	-204.47853	25.13551	116.93736	261.09921	19.11479	105.29824	-218.77293	151.64781	572.49084	270.10144	28.95308	543.40344	71.25864	810.56635	-122.20649	-12.29075	547.64612	-98.25340	140.25372	553.59906	-103.52210	12.13370	565.15845	785.57721	162.54991	565.14838	783.28345	
5252	52.510	-204.28780	25.16650	116.89448	261.37112	19.16736	105.22994	-216.38759	150.03079	569.65729	270.34842	29.52234	543.35492	72.07380	810.49530	-122.64397	-11.85202	547.57953	-98.44191	141.21785	553.25702	-103.57697	12.71377	565.71136	785.26251	163.09444	565.29663	783.09998	
5253	52.520	-204.09024	25.31804	116.80939	261.57053	19.23056	105.07670	-214.45370	146.87610	566.30725	270.59567	29.89072	543.29199	72.58881	810.52490	-122.90633	-11.45587	547.58301	-98.54033	141.48033	553.16962	-103.70344	13.31660	566.16138	785.09631	163.79692	565.56702	782.90198	
5254	52.530	-203.81918	25.44111	116.76846	261.77576	19.18627	105.00563	-213.01663	140.11324	563.30737	270.81494	30.35075	543.15076	73.30542	810.46118	-123.09595	-10.99903	547.60516	-98.55830	141.81505	553.17645	-103.84147	13.95930	566.41376	784.92804	164.26768	565.93384	782.86530	
5255	52.540	-203.60909	25.56793	116.65063	262.09518	19.25407	104.91099	-210.51237	130.51669	559.97882	271.10535	30.58306	542.98657	73.61018	810.43018	-123.25626	-10.41228	547.71179	-98.66396	142.31290	553.21252	-103.55280	14.57335	566.66254	784.92871	164.88155	566.24390	782.80133	
5256	52.550	-203.39177	25.61882	116.47784	262.40347	19.29330	104.73036	-208.66414	119.54539	557.76239	271.37436	30.75793	542.87006	73.83778	810.58862	-123.25838	-10.00672	547.81152	-98.69955	143.05814	553.53906	-103.43884	14.93808	566.75189	784.98846	165.36301	566.30029	782.73328	
5257	52.560	-203.22852	25.60314	116.43325	262.27158	19.28870	104.66112	-207.01874	107.65031	555.96411	271.64429	31.13029	542.78528	74.06456	810.89221	-123.18982	-9.52857	548.17957	-98.72045	143.68892	553.92706	-103.39478	14.85534	566.82324	784.82037	165.63426	566.31134	782.66266	
5258	52.570	-203.02698	25.64034	116.34232	262.46359	19.51291	104.40925	-205.73346	95.67763	555.07709	271.80038	31.51716	542.61847	74.21732	811.45874	-123.01273	-9.20702	548.53290	-98.71320	143.71881	554.31451	-103.53926	15.02169	566.49854	784.82086	165.99242	566.23944	782.64020	
5259	52.580	-202.65675	25.66759	116.20494	262.65823	19.64922	104.28491	-204.20155	84.96714	554.30048	271.96793	32.05204	542.35468	74.62747	812.04938	-122.76151	-8.81164	548.86682	-98.69455	144.10837	554.84479	-103.49000	15.06589	566.20355	784.78680	166.16333	566.17358	782.67615	
5260	52.590	-202.37386	25.71539	116.09274	262.85175	19.79084	104.20100	-202.92946	73.82189	553.96704	272.18094	32.39174	542.22815	74.98072	812.43695	-122.61008	-8.51211	549.23535	-98.71401	144.41217	555.15698	-103.35021	15.20174	566.19330	784.83661	166.33716	566.27020	782.78699	
5261	52.600	-202.12778	25.72793	116.01672	263.09143	19.82895	104.10928	-202.33191	64.20857	552.79254	272.43704	32.77567	542.25977	75.25887	812.63293	-122.41232	-8.35541	549.39978	-98.56404	144.65787	555.26404	-103.26666	15.50407	566.46216	785.12524	166.49620	566.57483	782.85291	
5262	52.610	-201.74748	25.72671	115.90323	263.61789	19.93628	104.04755	-201.83644	54.18015	552.15332	272.73694	33.22869	542.22888	75.50305	812.62927	-122.36919	-8.17683	549.51111	-98.36606	144.86526	555.24432	-103.24958	15.93676	567.17706	785.76892	166.49246	566.89972	782.69666	
5263	52.620	-201.25836	25.59265	115.87486	264.21442	19.87132	103.94386	-202.02177	44.58152	551.05157	272.97525	33.65702	542.13702	75.65929	812.60919	-122.34089	-7.88131	549.69574	-98.16498	145.07498	555.38812	-102.99111	16.17171	567.51971	785.88013	166.58528	567.19287	782.83289	
5264	52.630	-201.14813	25.60715	115.87941	264.52841	20.03482	103.90435	-203.42276	45.53218	547.84766	273.09766	34.10389	541.93842	75.77125	812.61957	-122.27827	-7.95708	549.63812	-97.91320	144.85690	555.50739	-103.19741	16.86139	568.46320	786.09937	167.92686	568.30719	784.04504	
5265	52.640	-200.90565	26.35151	115.98347	264.67606	19.50607	103.42493	-203.95633	46.95731	551.25323	273.20087	35.06043	541.76630	75.99295	812.45007	-122.41351	-8.14589	549.22125	-97.43742	144.69255	554.36505	-102.92989	17.83110	570.37006	786.07349	168.76021	569.67993	783.75562	
5266	52.650	-200.93854	26.47798	116.04543	264.51804	19.32516	103.48078	-203.05284	47.59259	552.83099	273.75443	35.76649	542.35492	76.77481	811.89276	-122.68333	-8.42164	548.92847	-97.02655	144.39774	554.16748	-102.65201	18.27435	572.09216	786.34882	169.33168	571.38440	783.91687	
5267	52.660	-200.68602	26.58375	115.97594	264.72012	19.30170	103.21114	-202.20700	49.19666	550.28461	274.28024	35.61896	541.64508	76.34574	811.50342	-123.01778	-8.35088	548.82861	-96.56510	144.40199	554.26752	-102.38708	18.76517	573.32648	786.92078	169.66910	572.40863	783.97919	
5268	52.670	-200.31654	26.71759	115.81006	265.05753	19.38072	103.11356	-201.91219	48.58609	551.90576	274.70859	35.59969	541.35229	75.51078	811.31140	-123.08173	-8.28872	549.02881	-96.23552	144.59549	554.67877	-102.07401	19.16662	573.71515	787.25977	169.89008	573.03149	784.21411	
5269	52.680	-199.98839	26.81072	115.75205	265.55759	19.61934	103.13197	-201.68115	49.31997	550.97791	274.94617	36.25244	541.28400	74.91361	811.60059	-122.81701	-8.11129	549.44867	-96.09969	144.61813	555.47681	-101.83805	19.49065	573.98297	787.52930	170.48177	573.43481	784.47809	
5270	52.690	-199.74808	26.93295	115.67517	266.04993	19.85577	103.09676	-201.16086	49.47450	551.08813	275.30566	36.67646	541.19995	74.69702	812.49872	-122.35700	-8.05483	549.85138	-95.93204	144.77136	555.84637	-101.36354	19.40376	573.61035	787.18469	170.61562	573.69153	784.73975	
5271	52.700	-199.25072	26.98839	115.47316	266.66620	19.90095	103.04334	-200.99796	49.70394	550.87311	275.62488	36.94772	541.07983	74.98434	813.24841	-121.78324	-8.10634	550.26318	-95.68909	144.66412	556.34662	-101.20691	19.27534	573.65491	787.25696	171.07013	574.06122	785.44574	
